<svg width="131" height="34" viewBox="0 0 131 34" fill="none" xmlns="http://www.w3.org/2000/svg">
<path fill-rule="evenodd" clip-rule="evenodd" d="M29.4832 14.6294V24.4981H23.4278V15.6158C23.4278 13.1342 22.4066 12.0827 20.8139 12.0827C19.0598 12.0827 17.7847 13.2608 17.7847 15.9348V24.4981H11.7298V15.6158C11.7298 13.1342 10.7416 12.0827 9.11656 12.0827C7.33179 12.0827 6.0567 13.2608 6.0567 15.9348V24.4981H0V7.24543H5.76914V9.05963C7.07665 7.65844 8.89264 6.95784 10.9332 6.95784C13.2912 6.95784 15.2987 7.817 16.5108 9.66376C17.8813 7.94482 20.0155 6.95784 22.502 6.95784C26.5182 6.95784 29.4832 9.2815 29.4832 14.6294Z" fill="#2EA836"/>
<path fill-rule="evenodd" clip-rule="evenodd" d="M65.9167 15.8709C65.9167 13.2609 64.3229 11.7644 62.2829 11.7644C60.243 11.7644 58.6498 13.2609 58.6498 15.8709C58.6498 18.4816 60.243 19.9768 62.2829 19.9768C64.3229 19.9768 65.9167 18.4816 65.9167 15.8709ZM72.0371 15.8709C72.0371 21.3466 68.2436 24.7845 63.5574 24.7845C61.5505 24.7845 59.9249 24.1786 58.7452 22.9703V30.6733H52.6903V7.2455H58.4577V8.96322C59.6061 7.59579 61.296 6.9579 63.5574 6.9579C68.2436 6.9579 72.0371 10.3952 72.0371 15.8709Z" fill="#2EA836"/>
<path fill-rule="evenodd" clip-rule="evenodd" d="M79.7489 14.2152H86.8249C86.5062 12.4004 85.1674 11.2561 83.2878 11.2561C81.407 11.2561 80.1007 12.4004 79.7489 14.2152ZM92.4026 17.3999H79.8438C80.354 19.1495 81.853 20.1691 84.0839 20.1691C85.772 20.1691 86.888 19.6916 88.067 18.6714L91.2554 21.9827C89.5973 23.8294 87.1755 24.7844 83.8918 24.7844C77.7408 24.7844 73.7582 20.9963 73.7582 15.8389C73.7582 10.6507 77.805 6.95784 83.2548 6.95784C88.354 6.95784 92.498 10.2052 92.498 15.9028C92.498 16.349 92.4344 16.9217 92.4026 17.3999Z" fill="#2EA836"/>
<path fill-rule="evenodd" clip-rule="evenodd" d="M93.9322 23.0021L95.7488 18.8642C97.3432 19.8494 99.6701 20.4547 101.774 20.4547C103.814 20.4547 104.482 20.0092 104.482 19.2772C104.482 16.953 94.2834 19.595 94.2834 12.6879C94.2834 9.44055 97.279 6.95772 102.697 6.95772C105.12 6.95772 107.797 7.46719 109.519 8.42282L107.702 12.5281C105.98 11.5731 104.26 11.2566 102.729 11.2566C100.69 11.2566 99.9558 11.8275 99.9558 12.4648C99.9558 14.8524 110.124 12.2737 110.124 19.1181C110.124 22.3015 107.191 24.7843 101.582 24.7843C98.6483 24.7843 95.6215 24.0512 93.9322 23.0021Z" fill="#2EA836"/>
<mask id="mask0_1157_64" style="mask-type:alpha" maskUnits="userSpaceOnUse" x="111" y="6" width="20" height="19">
<path fill-rule="evenodd" clip-rule="evenodd" d="M111.653 6.95749H131V24.7847H111.653V6.95749Z" fill="white"/>
</mask>
<g mask="url(#mask0_1157_64)">
<path fill-rule="evenodd" clip-rule="evenodd" d="M125.04 15.8385C125.04 13.2279 123.446 11.7646 121.407 11.7646C119.366 11.7646 117.773 13.2279 117.773 15.8385C117.773 18.4811 119.366 19.977 121.407 19.977C123.446 19.977 125.04 18.4811 125.04 15.8385ZM131 7.24569V24.4977H125.231V22.7782C124.084 24.1474 122.394 24.7847 120.131 24.7847C115.446 24.7847 111.653 21.3456 111.653 15.8385C111.653 10.364 115.446 6.95749 120.131 6.95749C122.139 6.95749 123.764 7.53087 124.945 8.73973V7.24569H131Z" fill="#2EA836"/>
</g>
<path fill-rule="evenodd" clip-rule="evenodd" d="M30.7871 16.5413C34.272 17.1466 37.0299 12.9792 37.0299 12.9792C39.8154 17.3239 42.0684 13.8263 42.0684 13.8263C42.0684 13.8263 40.1612 17.304 33.5402 17.1647C33.5402 17.1647 31.2211 16.689 30.7871 16.5413Z" fill="#A24A3F"/>
<path fill-rule="evenodd" clip-rule="evenodd" d="M43.8506 9.27204C43.8506 9.27204 38.9429 18.9737 30.7869 16.5415C30.7869 16.5415 45.8605 21.1822 51.3865 12.9016L43.8506 9.27204Z" fill="#DD383A"/>
<mask id="mask1_1157_64" style="mask-type:alpha" maskUnits="userSpaceOnUse" x="32" y="0" width="18" height="34">
<path fill-rule="evenodd" clip-rule="evenodd" d="M32.1163 0H49.5072V34H32.1163V0Z" fill="white"/>
</mask>
<g mask="url(#mask1_1157_64)">
<path fill-rule="evenodd" clip-rule="evenodd" d="M48.5215 16.2359V29.8167H33.1021L33.1015 2.74908H48.5221V10.9537L49.5072 11.5216V2.52359C49.5072 1.12963 48.5365 -0.000244141 47.3394 -0.000244141H34.2829C33.0859 -0.000244141 32.1169 1.12963 32.1169 2.52359L32.1163 31.4777C32.1163 32.8705 33.0859 34.0004 34.2823 34.0004H47.34C48.5365 34.0004 49.5072 32.8705 49.5072 31.4777V15.5564C49.183 15.7969 48.8036 16.052 48.5215 16.2359Z" fill="#B7BDAD"/>
</g>
</svg>
